<svg width="650" height="650" viewBox="0 0 650 650" fill="none" xmlns="http://www.w3.org/2000/svg">
<rect width="650" height="650" rx="325" fill="black"/>
<path d="M443 269.425C443 287.098 457.327 301.425 475 301.425C492.673 301.425 507 287.098 507 269.425H443ZM325 119.425V151.425V119.425ZM507 269.425C507 245.524 502.292 221.858 493.146 199.777L434.018 224.268C439.948 238.585 443 253.929 443 269.425H507ZM493.146 199.777C484 177.695 470.594 157.632 453.693 140.732L408.439 185.986C419.396 196.944 428.088 209.952 434.018 224.268L493.146 199.777ZM453.693 140.732C436.793 123.831 416.73 110.425 394.648 101.279L370.157 160.407C384.473 166.337 397.481 175.029 408.439 185.986L453.693 140.732ZM394.648 101.279C372.567 92.1326 348.901 87.425 325 87.425V151.425C340.496 151.425 355.84 154.477 370.157 160.407L394.648 101.279ZM325 87.425C301.099 87.425 277.433 92.1326 255.352 101.279L279.843 160.407C294.16 154.477 309.504 151.425 325 151.425V87.425ZM255.352 101.279C233.27 110.425 213.207 123.831 196.307 140.732L241.561 185.986C252.519 175.029 265.527 166.337 279.843 160.407L255.352 101.279ZM196.307 140.732C179.406 157.632 166 177.695 156.854 199.777L215.982 224.268C221.912 209.952 230.604 196.944 241.561 185.986L196.307 140.732ZM156.854 199.777C147.708 221.858 143 245.524 143 269.425H207C207 253.929 210.052 238.585 215.982 224.268L156.854 199.777Z" fill="white"/>
<path d="M143 380.752V412.752H207V380.752H143ZM143 263.483V308.418H207V263.483H143ZM143 308.418V380.752H207V308.418H143Z" fill="white"/>
<path d="M406 410.575H438C438 392.902 423.673 378.575 406 378.575V410.575ZM340.395 335.188C355.535 344.304 375.2 339.422 384.316 324.281C393.433 309.141 388.55 289.477 373.41 280.36L340.395 335.188ZM356.903 378.575C339.23 378.575 324.903 392.902 324.903 410.575C324.903 428.248 339.23 442.575 356.903 442.575V378.575ZM374 410.575C374 439.598 373.06 453.452 364.692 464.306L415.377 503.384C439.382 472.248 438 434.573 438 410.575H374ZM364.692 464.306C352.821 479.703 336.186 490.735 317.385 495.68L333.665 557.575C366.14 549.033 394.873 529.978 415.377 503.384L364.692 464.306ZM317.385 495.68C298.583 500.626 278.673 499.206 260.764 491.642L235.864 550.6C266.799 563.664 301.189 566.117 333.665 557.575L317.385 495.68ZM260.764 491.642C242.854 484.078 227.953 470.797 218.388 453.872L162.67 485.36C179.192 514.595 204.93 537.535 235.864 550.6L260.764 491.642ZM218.388 453.872C208.823 436.947 205.132 417.33 207.891 398.086L144.539 389.003C139.773 422.243 146.149 456.126 162.67 485.36L218.388 453.872ZM207.891 398.086C210.65 378.841 219.704 361.053 233.64 347.497L189.014 301.621C164.944 325.036 149.305 355.763 144.539 389.003L207.891 398.086ZM233.64 347.497C247.575 333.941 265.607 325.381 284.92 323.154L277.59 259.576C244.231 263.422 213.084 278.207 189.014 301.621L233.64 347.497ZM284.92 323.154C304.234 320.928 323.741 325.159 340.395 335.188L373.41 280.36C344.643 263.038 310.949 255.729 277.59 259.576L284.92 323.154ZM406 378.575H356.903V442.575H406V378.575Z" fill="white"/>
</svg>
