<svg xmlns="http://www.w3.org/2000/svg" version="1.1" xmlns:xlink="http://www.w3.org/1999/xlink" xmlns:svgjs="http://svgjs.com/svgjs" width="365" height="476"><svg width="365" height="476" viewBox="0 0 365 476" fill="none" xmlns="http://www.w3.org/2000/svg">
<path d="M301 182.242C301 199.915 315.327 214.242 333 214.242C350.673 214.242 365 199.915 365 182.242L301 182.242ZM183 32.2417L183 64.2417L183 32.2417ZM365 182.242C365 158.341 360.292 134.675 351.146 112.593L292.018 137.085C297.948 151.402 301 166.746 301 182.242L365 182.242ZM351.146 112.593C342 90.5121 328.594 70.4486 311.693 53.5483L266.439 98.8031C277.396 109.76 286.088 122.769 292.018 137.085L351.146 112.593ZM311.693 53.5483C294.793 36.648 274.73 23.242 252.648 14.0957L228.157 73.224C242.473 79.154 255.481 87.8458 266.439 98.8031L311.693 53.5483ZM252.648 14.0957C230.567 4.94931 206.901 0.241744 183 0.241745L183 64.2417C198.496 64.2417 213.84 67.2939 228.157 73.224L252.648 14.0957ZM183 0.241745C159.099 0.241746 135.433 4.94932 113.352 14.0957L137.843 73.224C152.16 67.2939 167.504 64.2417 183 64.2417L183 0.241745ZM113.352 14.0957C91.2703 23.242 71.2068 36.6481 54.3066 53.5483L99.5614 98.8032C110.519 87.8458 123.527 79.154 137.843 73.224L113.352 14.0957ZM54.3066 53.5483C37.4063 70.4486 24.0003 90.5121 14.8539 112.593L73.9822 137.085C79.9123 122.769 88.6041 109.76 99.5614 98.8032L54.3066 53.5483ZM14.8539 112.593C5.70757 134.675 0.999998 158.341 1 182.242L65 182.242C65 166.746 68.0522 151.402 73.9822 137.085L14.8539 112.593Z" fill="white"></path>
<path d="M1.00535 277.844L0.417091 309.839L64.4063 311.015L64.9945 279.021L1.00535 277.844ZM34.0001 224.036L65.9947 224.624C66.0027 224.186 66.0018 223.747 65.9918 223.309L34.0001 224.036ZM1.00819 180.727L2.00834 224.762L65.9918 223.309L64.9917 179.273L1.00819 180.727ZM2.00549 223.447L1.00535 277.844L64.9945 279.021L65.9947 224.624L2.00549 223.447Z" fill="white"></path>
<path d="M264 323.392H296C296 305.719 281.673 291.392 264 291.392V323.392ZM198.395 248.004C213.535 257.121 233.2 252.238 242.316 237.098C251.433 221.958 246.55 202.294 231.41 193.177L198.395 248.004ZM214.903 291.392C197.23 291.392 182.903 305.719 182.903 323.392C182.903 341.065 197.23 355.392 214.903 355.392V291.392ZM232 323.392C232 352.415 231.06 366.269 222.692 377.123L273.377 416.201C297.382 385.065 296 347.39 296 323.392H232ZM222.692 377.123C210.821 392.52 194.186 403.552 175.385 408.497L191.665 470.392C224.14 461.85 252.873 442.794 273.377 416.201L222.692 377.123ZM175.385 408.497C156.583 413.442 136.673 412.022 118.764 404.459L93.8643 463.417C124.799 476.481 159.189 478.934 191.665 470.392L175.385 408.497ZM118.764 404.459C100.854 396.895 85.9534 383.614 76.3882 366.688L20.6704 398.177C37.1921 427.412 62.9297 450.352 93.8643 463.417L118.764 404.459ZM76.3882 366.688C66.823 349.763 63.1318 330.147 65.8909 310.903L2.53877 301.819C-2.22703 335.06 4.14871 368.942 20.6704 398.177L76.3882 366.688ZM65.8909 310.903C68.6501 291.658 77.7043 273.869 91.6397 260.313L47.0139 214.438C22.9436 237.853 7.30457 268.579 2.53877 301.819L65.8909 310.903ZM91.6397 260.313C105.575 246.758 123.607 238.198 142.92 235.971L135.59 172.392C102.231 176.239 71.0842 191.023 47.0139 214.438L91.6397 260.313ZM142.92 235.971C162.234 233.744 181.741 237.976 198.395 248.004L231.41 193.177C202.643 175.855 168.949 168.546 135.59 172.392L142.92 235.971ZM264 291.392H214.903V355.392H264V291.392Z" fill="white"></path>
</svg><style>@media (prefers-color-scheme: light) { :root { filter: contrast(1) brightness(0.1); } }
@media (prefers-color-scheme: dark) { :root { filter: none; } }
</style></svg>