<?xml version="1.0" standalone="no"?>
<!DOCTYPE svg PUBLIC "-//W3C//DTD SVG 20010904//EN"
 "http://www.w3.org/TR/2001/REC-SVG-20010904/DTD/svg10.dtd">
<svg version="1.0" xmlns="http://www.w3.org/2000/svg"
 width="144.000000pt" height="144.000000pt" viewBox="0 0 144.000000 144.000000"
 preserveAspectRatio="xMidYMid meet">

<g transform="translate(0.000000,144.000000) scale(0.100000,-0.100000)"
fill="#000000" stroke="none">
<path d="M575 1425 c-87 -19 -116 -29 -193 -70 -234 -122 -382 -369 -382 -635
0 -397 323 -720 720 -720 397 0 720 323 720 720 0 349 -250 647 -594 709 -77
14 -195 12 -271 -4z m228 -453 c45 -30 56 -53 57 -112 0 -53 -1 -55 -54 -105
-35 -32 -56 -61 -61 -82 -6 -29 -10 -33 -41 -33 -34 0 -34 0 -34 47 0 44 3 50
56 98 63 59 68 84 21 119 -27 20 -28 20 -82 1 -54 -18 -56 -18 -70 1 -23 30
-18 40 28 63 54 27 141 28 180 3z m-61 -429 c37 -33 10 -93 -42 -93 -33 0 -52
21 -52 57 0 47 57 70 94 36z"/>
</g>
</svg>
