<?xml version="1.0" standalone="no"?>
<!DOCTYPE svg PUBLIC "-//W3C//DTD SVG 20010904//EN"
 "http://www.w3.org/TR/2001/REC-SVG-20010904/DTD/svg10.dtd">
<svg version="1.0" xmlns="http://www.w3.org/2000/svg"
 width="476.000000pt" height="476.000000pt" viewBox="0 0 476.000000 476.000000"
 preserveAspectRatio="xMidYMid meet">
<metadata>
Created by potrace 1.14, written by Peter Selinger 2001-2017
</metadata>
<g transform="translate(0.000000,476.000000) scale(0.100000,-0.100000)"
fill="#000000" stroke="none">
<path d="M2268 4755 c-2 -1 -34 -5 -72 -9 -478 -45 -961 -318 -1256 -711 -192
-256 -293 -499 -356 -860 -3 -22 -8 -328 -10 -680 -2 -352 -5 -684 -7 -737 -1
-54 0 -98 3 -98 3 0 4 -57 3 -127 -2 -166 17 -298 63 -448 124 -402 406 -733
780 -919 224 -110 432 -158 684 -158 396 2 777 159 1055 437 190 191 281 351
330 584 24 116 30 189 30 386 0 184 -1 192 -26 245 -28 59 -63 98 -120 136
-67 45 -116 51 -431 49 -246 -2 -300 -5 -337 -19 -122 -45 -198 -149 -208
-280 -6 -89 19 -162 79 -230 71 -82 157 -112 319 -111 86 1 81 9 58 -87 -23
-100 -145 -241 -284 -330 -441 -283 -1033 -119 -1261 348 -69 143 -87 223 -87
394 0 129 3 155 26 233 120 392 455 643 857 640 138 -1 253 -29 395 -98 61
-29 120 -56 133 -60 45 -13 105 -13 158 1 142 37 235 152 239 299 5 144 -65
242 -230 327 -315 161 -664 211 -999 143 -183 -37 -369 -110 -511 -199 -27
-18 -55 -35 -61 -39 -17 -10 -16 239 1 338 21 119 23 127 56 220 126 358 441
647 804 741 122 31 179 38 315 37 148 0 224 -12 353 -54 235 -77 445 -229 588
-426 59 -81 149 -248 149 -275 0 -8 4 -18 9 -23 9 -11 46 -147 55 -205 4 -19
9 -75 12 -125 7 -123 20 -179 51 -232 33 -57 108 -116 174 -138 175 -59 372
54 410 235 11 52 7 205 -7 305 -70 496 -332 940 -724 1226 -263 192 -518 293
-870 345 -42 6 -326 14 -332 9z"/>
</g>
</svg>
